<svg width="12" height="12" viewBox="0 0 12 12" fill="none" xmlns="http://www.w3.org/2000/svg">
<path d="M6.66813 0C6.84494 0 7.01451 0.0702379 7.13953 0.195262C7.26456 0.320286 7.33479 0.489856 7.33479 0.666667V3.69L9.95346 2.17867C10.1066 2.09027 10.2885 2.06631 10.4593 2.11207C10.6301 2.15783 10.7757 2.26955 10.8641 2.42267L11.5308 3.57733C11.6192 3.73045 11.6432 3.91242 11.5974 4.0832C11.5516 4.25398 11.4399 4.39959 11.2868 4.488L8.66879 6L11.2868 7.51267C11.4399 7.60108 11.5516 7.74669 11.5974 7.91747C11.6432 8.08825 11.6192 8.27021 11.5308 8.42333L10.8641 9.578C10.7757 9.73112 10.6301 9.84284 10.4593 9.8886C10.2885 9.93436 10.1066 9.9104 9.95346 9.822L7.33479 8.30933V11.3333C7.33479 11.5101 7.26456 11.6797 7.13953 11.8047C7.01451 11.9298 6.84494 12 6.66813 12H5.33479C5.15798 12 4.98841 11.9298 4.86339 11.8047C4.73837 11.6797 4.66813 11.5101 4.66813 11.3333V8.30933L2.04946 9.82133C1.89634 9.90974 1.71438 9.93369 1.5436 9.88793C1.37281 9.84217 1.2272 9.73045 1.13879 9.57733L0.472127 8.42267C0.383726 8.26955 0.35977 8.08758 0.405528 7.9168C0.451287 7.74602 0.563012 7.60041 0.716127 7.512L3.33413 6L0.716127 4.488C0.563012 4.39959 0.451287 4.25398 0.405528 4.0832C0.35977 3.91242 0.383726 3.73045 0.472127 3.57733L1.13879 2.42267C1.2272 2.26955 1.37281 2.15783 1.5436 2.11207C1.71438 2.06631 1.89634 2.09027 2.04946 2.17867L4.66813 3.69V0.666667C4.66813 0.489856 4.73837 0.320286 4.86339 0.195262C4.98841 0.0702379 5.15798 0 5.33479 0H6.66813Z" fill="#000080"/>
</svg>
