<svg width="115" height="104" viewBox="0 0 115 104" fill="none" xmlns="http://www.w3.org/2000/svg">
<path opacity="0.1" d="M86.2503 0H28.7497C28.7497 14.3219 15.8692 25.9457 0 25.9457V77.837C15.8692 77.837 28.7497 89.4605 28.7497 103.783H86.2503C86.2503 89.4605 99.1011 77.837 115 77.837V25.9457C99.1011 25.9457 86.2503 14.3219 86.2503 0ZM74.721 12.9729C74.6062 18.629 74.0023 23.9999 73.0252 28.8256C70.2365 42.4991 64.3135 51.8915 57.4995 51.8915C50.6568 51.8915 44.7348 42.4991 41.9461 28.8256C40.968 23.9999 40.3651 18.629 40.2503 12.9729H74.721ZM57.4995 76.5916C41.6005 76.5916 28.7497 64.9939 28.7497 50.6458C28.7497 46.4305 29.8837 42.4646 31.8563 38.9512C37.4615 54.5372 48.352 62.9999 57.4995 62.9999C66.6501 62.9999 77.5406 54.5106 83.1221 38.9165C85.1122 42.4404 86.2503 46.4255 86.2503 50.6458C86.2503 64.9938 73.3697 76.5916 57.4995 76.5916Z" fill="#FFFEFE"/>
</svg>
