<svg width="40" height="40" viewBox="0 0 40 40" fill="none" xmlns="http://www.w3.org/2000/svg">
<path d="M0 0H35C37.7614 0 40 2.23858 40 5V35C40 37.7614 37.7614 40 35 40H0V0Z" fill="white"/>
<path d="M28.2 12H17.5333V15.3333H20.2V16.6667H11.5333C10.4 16.6667 9.53333 17.5333 9.53333 18.6667V26C9.53333 27.1333 10.4 28 11.5333 28H12.2V31.4L16.4 28H20.8667V23.3333H28.2C29.3333 23.3333 30.2 22.4667 30.2 21.3333V14C30.2 12.8667 29.3333 12 28.2 12ZM16.7333 25.2667L16.4 24.2H14.3333L13.9333 25.2667H12.3333L14.5333 19.3333H16.1333L18.3333 25.2667H16.7333ZM26.8667 20V21.3333C26 21.3333 25.0667 21.0667 24.2667 20.6667C23.4667 21.0667 22.5333 21.2667 21.6 21.3333L21.5333 20C22 20 22.4667 19.9333 22.9333 19.8C22.3333 19.2 21.9333 18.4667 21.7333 17.6667H23.1333C23.3333 18.2667 23.7333 18.7333 24.2 19.1333C24.9333 18.5333 25.4 17.6667 25.4667 16.6667H21.4667V15.3333H23.4667V14H24.8V15.3333H27L27.0667 16C27.1333 17.4 26.6 18.8 25.6 19.8C26.0667 19.9333 26.4667 20 26.8667 20Z" fill="#000080"/>
</svg>
