<svg width="156" height="24" viewBox="0 0 156 24" fill="none" xmlns="http://www.w3.org/2000/svg">
<path d="M16.7572 0H5.58566C5.58566 3.16878 3.08316 5.74061 0 5.74061V17.2218C3.08316 17.2218 5.58566 19.7935 5.58566 22.9624H16.7572C16.7572 19.7935 19.2539 17.2218 22.3428 17.2218V5.74061C19.2539 5.74061 16.7572 3.16879 16.7572 0ZM14.5172 2.8703C14.4949 4.12175 14.3776 5.31008 14.1877 6.37779C13.6459 9.40312 12.4952 11.4812 11.1713 11.4812C9.84188 11.4812 8.69133 9.40312 8.14951 6.37779C7.95948 5.31008 7.84235 4.12175 7.82004 2.8703H14.5172ZM11.1713 16.9462C8.08238 16.9462 5.58566 14.3802 5.58566 11.2056C5.58566 10.273 5.80597 9.39549 6.18922 8.61813C7.27823 12.0666 9.39409 13.939 11.1713 13.939C12.9491 13.939 15.065 12.0607 16.1494 8.61045C16.5361 9.39012 16.7572 10.2718 16.7572 11.2056C16.7572 14.3802 14.2547 16.9462 11.1713 16.9462Z" fill="white"/>
<path d="M27.8906 19.6153V4.64388H33.1765C34.3422 4.64388 35.3023 4.84368 36.0593 5.24288C36.8146 5.64208 37.3772 6.18377 37.7445 6.86834C38.1118 7.55251 38.2958 8.33003 38.2958 9.19967C38.2958 10.0267 38.119 10.7821 37.7652 11.4667C37.4114 12.1509 36.8529 12.6999 36.0903 13.1135C35.327 13.527 34.3557 13.7338 33.1765 13.7338H30.3878V19.6153L27.8906 19.6153ZM30.3878 11.6379H33.0307C34.002 11.6379 34.6992 11.4168 35.1223 10.9746C35.5453 10.5328 35.7573 9.94117 35.7573 9.19968C35.7573 8.42953 35.5453 7.82725 35.1223 7.39242C34.6992 6.9576 34.002 6.73978 33.0307 6.73978H30.3878V11.6379Z" fill="white"/>
<path d="M38.7333 19.6153V9.00684H40.8973L41.1053 11.2526H41.1675C41.4726 10.5684 41.8025 10.048 42.1563 9.69142C42.51 9.33521 42.9188 9.08914 43.3841 8.95361C43.8486 8.81809 44.3793 8.75053 44.9761 8.75053V11.445H44.31C43.8247 11.445 43.3873 11.506 42.9993 11.6268C42.6104 11.7484 42.2845 11.9339 42.0208 12.1833C41.7571 12.4326 41.5595 12.7573 41.428 13.1561C41.2957 13.5557 41.2304 14.0405 41.2304 14.6108V19.6153L38.7333 19.6153Z" fill="white"/>
<path d="M50.45 19.8721C49.4644 19.8721 48.5767 19.6366 47.7855 19.1662C46.9951 18.6957 46.3673 18.0435 45.9027 17.2091C45.4374 16.3751 45.2056 15.4092 45.2056 14.3111C45.2056 13.2134 45.4374 12.2438 45.9027 11.4025C46.3673 10.5615 46.9983 9.90883 47.7959 9.44535C48.5935 8.98228 49.4851 8.75053 50.4707 8.75053C51.4691 8.75053 52.3639 8.98227 53.1551 9.44535C53.9455 9.90883 54.5733 10.5615 55.0387 11.4025C55.5032 12.2438 55.7358 13.2134 55.7358 14.3111C55.7358 15.4092 55.5032 16.3751 55.0387 17.2091C54.5733 18.0435 53.9423 18.6957 53.1447 19.1662C52.3463 19.6366 51.4484 19.8721 50.45 19.8721ZM50.45 17.7332C50.9488 17.7332 51.4029 17.605 51.8125 17.3483C52.222 17.0916 52.5511 16.7104 52.8013 16.2039C53.0507 15.6978 53.1758 15.0669 53.1758 14.3111C53.1758 13.5413 53.0539 12.9034 52.8117 12.397C52.5686 11.8909 52.2396 11.513 51.8228 11.2632C51.4069 11.0143 50.9631 10.889 50.4914 10.889C50.0054 10.889 49.5544 11.0143 49.1385 11.2632C48.7225 11.513 48.3855 11.8909 48.1289 12.397C47.8724 12.9034 47.7441 13.5413 47.7441 14.3111C47.7441 15.0669 47.8724 15.6978 48.1289 16.2039C48.3855 16.7104 48.7186 17.0916 49.1281 17.3483C49.5369 17.605 49.9775 17.7332 50.45 17.7332Z" fill="white"/>
<path d="M63.581 19.8721C62.1237 19.8721 60.8679 19.5478 59.8138 18.8988C58.7597 18.2503 57.9517 17.345 57.3892 16.1826C56.8274 15.0207 56.547 13.6769 56.547 12.1509C56.547 10.611 56.8306 9.26029 57.3995 8.0979C57.9684 6.93592 58.7764 6.02697 59.8242 5.37105C60.8719 4.71554 62.1237 4.38718 63.581 4.38718C65.3148 4.38718 66.7339 4.82568 67.8366 5.70269C68.9394 6.57971 69.6366 7.81661 69.9282 9.41342H67.1809C66.9865 8.57244 66.5881 7.90915 65.9841 7.42438C65.3809 6.9396 64.5722 6.69722 63.5595 6.69722C62.6304 6.69722 61.8329 6.91831 61.1667 7.3601C60.5006 7.80229 59.9875 8.42955 59.6266 9.24228C59.2656 10.055 59.0855 11.025 59.0855 12.1509C59.0855 13.2634 59.2656 14.2255 59.6266 15.0383C59.9875 15.851 60.5006 16.475 61.1667 16.9098C61.8329 17.345 62.6304 17.562 63.5595 17.562C64.5722 17.562 65.3841 17.3344 65.9945 16.8779C66.6048 16.4218 67.0072 15.8015 67.2016 15.017H69.9282C69.6501 16.5286 68.9601 17.7156 67.8573 18.5782C66.7546 19.4409 65.3291 19.8721 63.581 19.8721Z" fill="white"/>
<path d="M74.0691 19.8721C73.2364 19.8721 72.5496 19.7255 72.0086 19.4336C71.4676 19.1416 71.0652 18.749 70.8015 18.2572C70.5377 17.7655 70.4062 17.2271 70.4062 16.6424C70.4062 15.9726 70.576 15.3912 70.9162 14.8995C71.2564 14.4073 71.7592 14.0224 72.4253 13.7444C73.0906 13.4664 73.9161 13.3272 74.9017 13.3272H77.5446C77.5446 12.7573 77.4642 12.2832 77.3048 11.9052C77.1454 11.5273 76.9024 11.2493 76.5765 11.0708C76.2507 10.8927 75.8451 10.8034 75.3591 10.8034C74.7902 10.8034 74.2946 10.9427 73.8715 11.2207C73.4484 11.4987 73.195 11.9233 73.1121 12.4932H70.6564C70.725 11.7235 70.9712 11.0602 71.3951 10.5042C71.8181 9.94813 72.3727 9.517 73.0595 9.21033C73.7464 8.90366 74.52 8.75053 75.3798 8.75053C76.3654 8.75053 77.2076 8.92496 77.9088 9.2742C78.6091 9.62386 79.1398 10.1193 79.5007 10.7609C79.8617 11.4025 80.0418 12.1796 80.0418 13.0922V19.6153H77.9606L77.7112 17.9043H77.6482C77.4538 18.2327 77.2323 18.5176 76.9829 18.76C76.7327 19.0024 76.4626 19.2055 76.171 19.3693C75.8794 19.5335 75.5567 19.6579 75.2029 19.7435C74.8491 19.8291 74.4714 19.8721 74.0691 19.8721ZM74.7766 17.84C75.1925 17.84 75.5638 17.7655 75.8897 17.6157C76.2156 17.4658 76.4897 17.2558 76.712 16.9847C76.9335 16.7141 77.1104 16.407 77.2427 16.0651C77.3741 15.7228 77.4538 15.3666 77.4817 14.9957V14.9744H75.1718C74.6722 14.9744 74.2635 15.0383 73.944 15.1668C73.6253 15.295 73.3926 15.4698 73.2468 15.6909C73.101 15.912 73.0285 16.165 73.0285 16.45C73.0285 16.7493 73.101 17.0027 73.2468 17.2091C73.3926 17.4163 73.5974 17.5727 73.8611 17.6799C74.124 17.7868 74.43 17.84 74.7766 17.84Z" fill="white"/>
<path d="M80.8329 19.6153V9.00684H82.997L83.205 11.2526H83.2671C83.5723 10.5684 83.9022 10.048 84.2559 9.69142C84.6097 9.33521 85.0185 9.08914 85.4838 8.95361C85.9483 8.81809 86.479 8.75053 87.0758 8.75053V11.445H86.4096C85.9244 11.445 85.487 11.506 85.0989 11.6268C84.7101 11.7484 84.3842 11.9339 84.1205 12.1833C83.8567 12.4326 83.6591 12.7573 83.5277 13.1561C83.3954 13.5557 83.3301 14.0405 83.3301 14.6108V19.6153L80.8329 19.6153Z" fill="white"/>
<path d="M92.3824 19.8721C91.3418 19.8721 90.4223 19.6399 89.6247 19.1768C88.8271 18.7138 88.2024 18.0722 87.7522 17.2521C87.3005 16.4324 87.0758 15.4735 87.0758 14.3754C87.0758 13.2633 87.2973 12.2868 87.7411 11.445C88.1857 10.6041 88.8064 9.94486 89.604 9.46705C90.4015 8.98923 91.3274 8.75053 92.3824 8.75053C93.4086 8.75053 94.3074 8.98227 95.0771 9.44535C95.8476 9.90883 96.4436 10.5254 96.8667 11.2956C97.2897 12.0653 97.5017 12.9354 97.5017 13.9049C97.5017 14.0474 97.4985 14.2042 97.4913 14.3754C97.4842 14.5465 97.4738 14.732 97.4603 14.9314H88.8861V13.2846H94.9839C94.9416 12.5145 94.6779 11.9052 94.1926 11.4561C93.7066 11.0069 93.1034 10.7822 92.3824 10.7822C91.8684 10.7822 91.3935 10.8997 90.9569 11.1351C90.5195 11.3705 90.1729 11.7271 89.9163 12.2045C89.6589 12.6823 89.5315 13.2846 89.5315 14.0118V14.6321C89.5315 15.288 89.6558 15.851 89.906 16.3218C90.1553 16.7923 90.4956 17.1526 90.9258 17.4015C91.3553 17.6513 91.8342 17.7762 92.3616 17.7762C92.9305 17.7762 93.4086 17.6406 93.7975 17.3696C94.1855 17.0989 94.4771 16.7423 94.6715 16.3001H97.1894C97.0093 16.9847 96.693 17.5944 96.2428 18.1291C95.7918 18.6634 95.2404 19.088 94.5879 19.4016C93.9361 19.7148 93.2007 19.8721 92.3824 19.8721Z" fill="white"/>
<path d="M108.178 19.8721C106.873 19.8721 105.722 19.5511 104.724 18.9095C103.725 18.2679 102.947 17.3733 102.392 16.2252C101.838 15.078 101.56 13.7338 101.56 12.1939C101.56 10.6683 101.851 9.31719 102.434 8.14088C103.017 6.96456 103.85 6.04497 104.932 5.38168C106.014 4.7188 107.304 4.38716 108.802 4.38716C110.495 4.38716 111.903 4.80438 113.027 5.6384C114.15 6.47242 114.872 7.63113 115.191 9.11411H112.382C112.174 8.37262 111.764 7.79531 111.154 7.38137C110.543 6.96825 109.752 6.76149 108.782 6.76149C107.81 6.76149 106.971 6.9789 106.263 7.41372C105.556 7.84895 105.018 8.47621 104.65 9.2959C104.283 10.116 104.099 11.0888 104.099 12.2152C104.099 13.3415 104.283 14.3111 104.65 15.1238C105.018 15.9366 105.542 16.5536 106.222 16.9741C106.901 17.3946 107.699 17.605 108.615 17.605C109.975 17.605 111.005 17.2128 111.705 16.4287C112.406 15.6446 112.812 14.6251 112.923 13.3702H109.156V11.4237H115.462V19.6153H113.173L112.964 17.0916H112.902C112.569 17.6906 112.174 18.1966 111.715 18.6102C111.258 19.0237 110.738 19.3373 110.155 19.5511C109.572 19.7652 108.913 19.8721 108.178 19.8721Z" fill="white"/>
<path d="M116.378 19.6153V9.00684H118.542L118.75 11.2526H118.812C119.117 10.5684 119.447 10.048 119.801 9.69142C120.154 9.33521 120.563 9.08914 121.028 8.95361C121.493 8.81809 122.024 8.75053 122.62 8.75053V11.445H121.954C121.469 11.445 121.032 11.506 120.644 11.6268C120.255 11.7484 119.929 11.9339 119.665 12.1833C119.401 12.4326 119.204 12.7573 119.072 13.1561C118.94 13.5557 118.875 14.0405 118.875 14.6108V19.6153L116.378 19.6153Z" fill="white"/>
<path d="M127.865 19.8721C126.879 19.8721 125.992 19.6366 125.2 19.1662C124.41 18.6957 123.782 18.0435 123.318 17.2091C122.852 16.3751 122.62 15.4092 122.62 14.3111C122.62 13.2134 122.852 12.2438 123.318 11.4025C123.782 10.5615 124.413 9.90883 125.211 9.44535C126.008 8.98228 126.9 8.75053 127.885 8.75053C128.884 8.75053 129.779 8.98227 130.57 9.44535C131.36 9.90883 131.988 10.5615 132.453 11.4025C132.918 12.2438 133.151 13.2134 133.151 14.3111C133.151 15.4092 132.918 16.3751 132.453 17.2091C131.988 18.0435 131.357 18.6957 130.559 19.1662C129.761 19.6366 128.863 19.8721 127.865 19.8721ZM127.865 17.7332C128.364 17.7332 128.818 17.605 129.227 17.3483C129.637 17.0916 129.966 16.7104 130.216 16.2039C130.465 15.6978 130.591 15.0669 130.591 14.3111C130.591 13.5413 130.469 12.9034 130.226 12.397C129.983 11.8909 129.654 11.513 129.238 11.2632C128.822 11.0143 128.378 10.889 127.906 10.889C127.42 10.889 126.969 11.0143 126.553 11.2632C126.137 11.513 125.8 11.8909 125.544 12.397C125.287 12.9034 125.159 13.5413 125.159 14.3111C125.159 15.0669 125.287 15.6978 125.544 16.2039C125.8 16.7104 126.133 17.0916 126.543 17.3483C126.952 17.605 127.392 17.7332 127.865 17.7332Z" fill="white"/>
<path d="M138.021 19.8721C137.188 19.8721 136.473 19.6903 135.876 19.3267C135.28 18.9631 134.822 18.4214 134.504 17.7012C134.184 16.9814 134.025 16.0938 134.025 15.0382V9.00684H136.501V14.7815C136.501 15.7372 136.692 16.4643 137.073 16.9634C137.455 17.4625 138.034 17.7119 138.811 17.7119C139.338 17.7119 139.8 17.5833 140.195 17.327C140.59 17.0703 140.903 16.7034 141.131 16.2252C141.361 15.7478 141.475 15.1668 141.475 14.4822V9.00684H143.972V19.6153H141.808L141.6 17.9043H141.538C141.205 18.5033 140.746 18.9811 140.164 19.3373C139.581 19.6935 138.866 19.8721 138.021 19.8721Z" fill="white"/>
<path d="M144.929 24V9.00684H147.072L147.239 10.8251H147.301C147.564 10.3973 147.88 10.0304 148.248 9.72335C148.615 9.4171 149.039 9.17798 149.517 9.00684C149.996 8.83611 150.52 8.75053 151.089 8.75053C152.073 8.75053 152.934 8.99292 153.669 9.47769C154.404 9.96247 154.977 10.6217 155.386 11.4561C155.795 12.2901 156 13.2416 156 14.3111C156 15.3805 155.795 16.3325 155.386 17.1665C154.977 18.0005 154.398 18.6601 153.649 19.1449C152.899 19.6293 152.011 19.8721 150.984 19.8721C150.152 19.8721 149.438 19.7042 148.841 19.3693C148.244 19.0344 147.772 18.6175 147.426 18.118V24H144.929ZM150.443 17.7332C151.054 17.7332 151.584 17.587 152.035 17.2947C152.486 17.0027 152.837 16.6035 153.086 16.0971C153.336 15.591 153.461 14.9957 153.461 14.3111C153.461 13.6413 153.336 13.0529 153.086 12.5468C152.837 12.0408 152.486 11.6416 152.035 11.3488C151.584 11.0569 151.054 10.9107 150.443 10.9107C149.833 10.9107 149.299 11.0569 148.841 11.3488C148.384 11.6416 148.03 12.0408 147.78 12.5468C147.53 13.0529 147.405 13.6413 147.405 14.3111C147.405 14.9957 147.53 15.591 147.78 16.0971C148.03 16.6035 148.384 17.0027 148.841 17.2947C149.299 17.587 149.833 17.7332 150.443 17.7332Z" fill="white"/>
</svg>
